#N canvas 0 0 1904 1016 10;
#X obj 240 80 adc~ 1;
#N canvas 727 358 450 300 panner 0;
#X obj 113 22 inlet~;
#X obj 453 12 inlet;
#X obj 512 360 outlet~;
#X obj 113 322 *~;
#X obj 492 320 *~;
#X obj 113 362 outlet~;
#X floatatom 463 132 5 0 0 0 - - -, f 5;
#X obj 443 82 expr ((($f1 *90 )/127)-45);
#X floatatom 483 212 5 0 0 0 - - -, f 5;
#X obj 443 172 expr sqrt(2)/2 * (cos($f1)+sin($f1));
#X obj 683 172 expr sqrt(2)/2 * (cos($f1)-sin($f1));
#X floatatom 683 222 5 0 0 0 - - -, f 5;
#X obj 205 314 line 0 1;
#X obj 573 312 line 0 1;
#X msg 203 282 \$1 80;
#X msg 573 282 \$1 80;
#X obj 565 53 line 0 1;
#X msg 655 33 \$1 20;
#X connect 0 0 3 0;
#X connect 0 0 4 0;
#X connect 1 0 17 0;
#X connect 3 0 5 0;
#X connect 4 0 2 0;
#X connect 6 0 9 0;
#X connect 6 0 10 0;
#X connect 7 0 6 0;
#X connect 8 0 14 0;
#X connect 9 0 8 0;
#X connect 10 0 11 0;
#X connect 11 0 15 0;
#X connect 12 0 3 1;
#X connect 13 0 4 1;
#X connect 14 0 12 0;
#X connect 15 0 13 0;
#X connect 16 0 7 0;
#X connect 17 0 16 0;
#X restore 310 180 pd panner;
#X obj 750 250 hsl 128 15 0 127 0 0 empty empty empty -2 -8 0 10 #ff8040
#000000 #000000 10400 1;
#X obj 330 620 hsl 128 15 0 1 0 0 empty empty empty -2 -8 0 10 #ff8040
#000000 #000000 0 1;
#X obj 240 700 dac~;
#X obj 240 660 *~;
#X text 480 620 Dry Mix;
#X obj 750 320 hsl 128 15 0 1 0 0 empty empty empty -2 -8 0 10 #ff8040
#000000 #000000 12700 1;
#X text 910 320 Wet Mix;
#X obj 280 440 *~;
#X obj 280 390 delread4~ audio-bufferA;
#X obj 310 270 delwrite~ audio-bufferA 2000;
#X obj 450 440 *~;
#X obj 450 390 delread4~ audio-bufferB;
#X obj 510 270 delwrite~ audio-bufferB 2000;
#X obj 750 290 hsl 128 15 20 2000 0 0 empty empty empty -2 -8 0 10
#ff8040 #000000 #000000 2000 1;
#X text 900 290 DelayTime;
#X obj 550 490 *~;
#X obj 720 490 *~;
#X obj 750 350 hsl 128 15 0 1 0 0 empty empty empty -2 -8 0 10 #ff8040
#000000 #000000 8750 1;
#X text 890 350 FeedbackAmt;
#X obj 460 180 r~ delA;
#X obj 550 530 s~ delA;
#X obj 720 530 s~ delB;
#X obj 400 180 r~ delB;
#X obj 860 470 line~;
#X obj 860 450 pack f 50;
#X obj 430 360 line~;
#X obj 430 340 pack f 50;
#X text 900 250 Pan offset;
#X connect 0 0 5 0;
#X connect 0 0 1 0;
#X connect 1 0 11 0;
#X connect 1 1 14 0;
#X connect 2 0 1 1;
#X connect 3 0 5 1;
#X connect 5 0 4 0;
#X connect 5 0 4 1;
#X connect 7 0 12 1;
#X connect 7 0 9 1;
#X connect 9 0 4 0;
#X connect 10 0 9 0;
#X connect 10 0 17 0;
#X connect 12 0 4 1;
#X connect 13 0 12 0;
#X connect 13 0 18 0;
#X connect 15 0 28 0;
#X connect 17 0 22 0;
#X connect 18 0 23 0;
#X connect 19 0 26 0;
#X connect 21 0 14 0;
#X connect 24 0 11 0;
#X connect 25 0 17 1;
#X connect 25 0 18 1;
#X connect 26 0 25 0;
#X connect 27 0 13 0;
#X connect 27 0 10 0;
#X connect 28 0 27 0;
